<svg viewBox="0 0 470.39 125.12" xmlns="http://www.w3.org/2000/svg" width="430px" height="114px"><g fill="#1a1a1a"><g transform="translate(-87.66 -217.3)"><path d="m284.71 259.33-8.35 4.95q-2.34-4.07-4.46-5.3a10.41 10.41 0 0 0 -5.7-1.41 10.53 10.53 0 0 0 -7.11 2.43 7.53 7.53 0 0 0 -2.83 6q0 5 7.42 8l6.81 2.78q8.31 3.36 12.15 8.2a18.48 18.48 0 0 1 3.84 11.87 20.85 20.85 0 0 1 -6.27 15.55 21.54 21.54 0 0 1 -15.69 6.19q-8.88 0-14.67-5.26t-7.11-14.8l10.43-2.3q.71 6 2.47 8.31 3.18 4.42 9.28 4.42a10.77 10.77 0 0 0 8-3.22 11.16 11.16 0 0 0 3.18-8.17 11.47 11.47 0 0 0 -.55-3.65 9.26 9.26 0 0 0 -1.72-3 13.78 13.78 0 0 0 -3-2.61 29.35 29.35 0 0 0 -4.42-2.32l-6.58-2.74q-14-5.92-14-17.32a16.43 16.43 0 0 1 5.88-12.86 21.23 21.23 0 0 1 14.63-5.21q11.74-.02 18.37 11.47z"/><path d="m308.11 283.63v33.76h-9.94v-33.76h-4.24v-9.28h4.24v-15.77h9.94v15.77h7.73v9.28z"/><path d="m323.28 274.35h9.94v3.84a19 19 0 0 1 4.86-3.93 11.16 11.16 0 0 1 5.13-1.1 16.06 16.06 0 0 1 8.22 2.56l-4.55 9.1a9.5 9.5 0 0 0 -5.52-2q-8.13 0-8.13 12.28v22.32h-9.94v-43z"/><path d="m368.45 274.35v24.7q0 10.69 8.44 10.69t8.44-10.69v-24.7h9.94v24.92a27.72 27.72 0 0 1 -1.27 8.93 15 15 0 0 1 -4.29 6.05q-5 4.37-12.81 4.37a18.77 18.77 0 0 1 -12.77-4.37 15.22 15.22 0 0 1 -4.37-6.05q-1.24-3-1.24-8.93v-24.92h9.94z"/><path d="m437.07 276.21v13.21a24.23 24.23 0 0 0 -6.1-5.7 11.88 11.88 0 0 0 -6.23-1.59 12.29 12.29 0 0 0 -9.32 3.93 13.8 13.8 0 0 0 -3.71 9.86 14.11 14.11 0 0 0 3.58 9.94 12.07 12.07 0 0 0 9.24 3.89 12.62 12.62 0 0 0 6.32-1.55 25 25 0 0 0 6.23-5.83v13.12a26.11 26.11 0 0 1 -12.08 3.14 23.17 23.17 0 0 1 -16.7-6.45 21.53 21.53 0 0 1 -6.76-16.18 21.82 21.82 0 0 1 6.8-16.26 23 23 0 0 1 16.7-6.63 25 25 0 0 1 12.03 3.1z"/><path d="m459.36 283.63v33.76h-9.94v-33.76h-4.24v-9.28h4.24v-15.77h9.94v15.77h7.73v9.28z"/><path d="m475.2 256.45a6.49 6.49 0 0 1 6.45-6.41 6.26 6.26 0 0 1 4.6 1.9 6.12 6.12 0 0 1 1.9 4.55 6.26 6.26 0 0 1 -1.9 4.6 6.11 6.11 0 0 1 -4.55 1.9 6.49 6.49 0 0 1 -6.5-6.54zm11.44 17.9v43h-9.94v-43z"/><path d="m528.12 274.35h10v43h-10v-4.51q-6.14 5.74-13.21 5.74a19 19 0 0 1 -14.76-6.45q-5.79-6.58-5.79-16.44 0-9.68 5.79-16.13a18.66 18.66 0 0 1 14.49-6.45q7.51 0 13.48 6.19v-5zm-23.6 21.39a15 15 0 0 0 3.31 10.07 10.85 10.85 0 0 0 8.57 3.93 11.41 11.41 0 0 0 8.93-3.8 16.36 16.36 0 0 0 0-20 11.25 11.25 0 0 0 -8.84-3.84 11 11 0 0 0 -8.57 3.89 14.34 14.34 0 0 0 -3.4 9.75z"/><path d="m558 242.76v74.63h-9.9v-74.63z"/><path d="m150.22 342.42a62.56 62.56 0 1 1 62.56-62.56 62.63 62.63 0 0 1 -62.56 62.56zm0-112.12a49.56 49.56 0 1 0 49.56 49.56 49.62 49.62 0 0 0 -49.56-49.56z"/></g><path d="m57.56 31.15h10v87.47h-10z"/><path d="m155.22 286h-10c0-7.43 9.24-22 30.58-22v10c-15.43 0-20.58 9.48-20.58 12z" transform="translate(-87.66 -217.3)"/><path d="m155.22 317.19h-10c0-16.84 20.88-27.26 40.23-27.26v10c-14.3 0-30.23 7.07-30.23 17.26z" transform="translate(-87.66 -217.3)"/><path d="m155.22 286h-10c0-2.54-5.15-12-20.58-12v-10c11.61 0 18.89 4.25 22.95 7.81 4.7 4.19 7.63 9.59 7.63 14.19z" transform="translate(-87.66 -217.3)"/><path d="m155.22 316.74h-10c0-10.17-15.93-17.27-30.23-17.27v-10c19.35.01 40.23 10.43 40.23 27.27z" transform="translate(-87.66 -217.3)"/></g></svg>